<?xml version="1.0" encoding="utf-8" standalone="no"?>
<!DOCTYPE svg PUBLIC "-//W3C//DTD SVG 1.1//EN"
  "http://www.w3.org/Graphics/SVG/1.1/DTD/svg11.dtd">
<svg xmlns:xlink="http://www.w3.org/1999/xlink" width="440.2075pt" height="274.85525pt" viewBox="0 0 440.2075 274.85525" xmlns="http://www.w3.org/2000/svg" version="1.1">
 <metadata>
  <rdf:RDF xmlns:dc="http://purl.org/dc/elements/1.1/" xmlns:cc="http://creativecommons.org/ns#" xmlns:rdf="http://www.w3.org/1999/02/22-rdf-syntax-ns#">
   <cc:Work>
    <dc:type rdf:resource="http://purl.org/dc/dcmitype/StillImage"/>
    <dc:date>2026-06-30T09:25:06.616856</dc:date>
    <dc:format>image/svg+xml</dc:format>
    <dc:creator>
     <cc:Agent>
      <dc:title>Matplotlib v3.10.9, https://matplotlib.org/</dc:title>
     </cc:Agent>
    </dc:creator>
   </cc:Work>
  </rdf:RDF>
 </metadata>
 <defs>
  <style type="text/css">*{stroke-linejoin: round; stroke-linecap: butt}</style>
 </defs>
 <g id="figure_1">
  <g id="patch_1">
   <path d="M 0 274.85525 
L 440.2075 274.85525 
L 440.2075 0 
L 0 0 
z
" style="fill: #ffffff"/>
  </g>
  <g id="axes_1">
   <g id="patch_2">
    <path d="M 36.8275 241.8315 
L 433.0075 241.8315 
L 433.0075 20.0715 
L 36.8275 20.0715 
z
" style="fill: #ffffff"/>
   </g>
   <g id="matplotlib.axis_1">
    <g id="xtick_1">
     <g id="line2d_1">
      <path d="M 54.835682 241.8315 
L 54.835682 20.0715 
" clip-path="url(#p4949fa2ee6)" style="fill: none; stroke: #b0b0b0; stroke-opacity: 0.18; stroke-width: 0.8; stroke-linecap: square"/>
     </g>
     <g id="line2d_2">
      <defs>
       <path id="m8d96431532" d="M 0 0 
L 0 3.5 
" style="stroke: #000000; stroke-width: 0.8"/>
      </defs>
      <g>
       <use xlink:href="#m8d96431532" x="54.835682" y="241.8315" style="stroke: #000000; stroke-width: 0.8"/>
      </g>
     </g>
     <g id="text_1">
      <text style="font-size: 8px; font-family: 'Arial', 'DejaVu Sans', 'Microsoft YaHei', 'SimHei', sans-serif; text-anchor: middle" x="54.835682" y="254.55775" transform="rotate(-0 54.835682 254.55775)">0</text>
     </g>
    </g>
    <g id="xtick_2">
     <g id="line2d_3">
      <path d="M 99.856136 241.8315 
L 99.856136 20.0715 
" clip-path="url(#p4949fa2ee6)" style="fill: none; stroke: #b0b0b0; stroke-opacity: 0.18; stroke-width: 0.8; stroke-linecap: square"/>
     </g>
     <g id="line2d_4">
      <g>
       <use xlink:href="#m8d96431532" x="99.856136" y="241.8315" style="stroke: #000000; stroke-width: 0.8"/>
      </g>
     </g>
     <g id="text_2">
      <text style="font-size: 8px; font-family: 'Arial', 'DejaVu Sans', 'Microsoft YaHei', 'SimHei', sans-serif; text-anchor: middle" x="99.856136" y="254.55775" transform="rotate(-0 99.856136 254.55775)">10</text>
     </g>
    </g>
    <g id="xtick_3">
     <g id="line2d_5">
      <path d="M 144.876591 241.8315 
L 144.876591 20.0715 
" clip-path="url(#p4949fa2ee6)" style="fill: none; stroke: #b0b0b0; stroke-opacity: 0.18; stroke-width: 0.8; stroke-linecap: square"/>
     </g>
     <g id="line2d_6">
      <g>
       <use xlink:href="#m8d96431532" x="144.876591" y="241.8315" style="stroke: #000000; stroke-width: 0.8"/>
      </g>
     </g>
     <g id="text_3">
      <text style="font-size: 8px; font-family: 'Arial', 'DejaVu Sans', 'Microsoft YaHei', 'SimHei', sans-serif; text-anchor: middle" x="144.876591" y="254.55775" transform="rotate(-0 144.876591 254.55775)">20</text>
     </g>
    </g>
    <g id="xtick_4">
     <g id="line2d_7">
      <path d="M 189.897045 241.8315 
L 189.897045 20.0715 
" clip-path="url(#p4949fa2ee6)" style="fill: none; stroke: #b0b0b0; stroke-opacity: 0.18; stroke-width: 0.8; stroke-linecap: square"/>
     </g>
     <g id="line2d_8">
      <g>
       <use xlink:href="#m8d96431532" x="189.897045" y="241.8315" style="stroke: #000000; stroke-width: 0.8"/>
      </g>
     </g>
     <g id="text_4">
      <text style="font-size: 8px; font-family: 'Arial', 'DejaVu Sans', 'Microsoft YaHei', 'SimHei', sans-serif; text-anchor: middle" x="189.897045" y="254.55775" transform="rotate(-0 189.897045 254.55775)">30</text>
     </g>
    </g>
    <g id="xtick_5">
     <g id="line2d_9">
      <path d="M 234.9175 241.8315 
L 234.9175 20.0715 
" clip-path="url(#p4949fa2ee6)" style="fill: none; stroke: #b0b0b0; stroke-opacity: 0.18; stroke-width: 0.8; stroke-linecap: square"/>
     </g>
     <g id="line2d_10">
      <g>
       <use xlink:href="#m8d96431532" x="234.9175" y="241.8315" style="stroke: #000000; stroke-width: 0.8"/>
      </g>
     </g>
     <g id="text_5">
      <text style="font-size: 8px; font-family: 'Arial', 'DejaVu Sans', 'Microsoft YaHei', 'SimHei', sans-serif; text-anchor: middle" x="234.9175" y="254.55775" transform="rotate(-0 234.9175 254.55775)">40</text>
     </g>
    </g>
    <g id="xtick_6">
     <g id="line2d_11">
      <path d="M 279.937955 241.8315 
L 279.937955 20.0715 
" clip-path="url(#p4949fa2ee6)" style="fill: none; stroke: #b0b0b0; stroke-opacity: 0.18; stroke-width: 0.8; stroke-linecap: square"/>
     </g>
     <g id="line2d_12">
      <g>
       <use xlink:href="#m8d96431532" x="279.937955" y="241.8315" style="stroke: #000000; stroke-width: 0.8"/>
      </g>
     </g>
     <g id="text_6">
      <text style="font-size: 8px; font-family: 'Arial', 'DejaVu Sans', 'Microsoft YaHei', 'SimHei', sans-serif; text-anchor: middle" x="279.937955" y="254.55775" transform="rotate(-0 279.937955 254.55775)">50</text>
     </g>
    </g>
    <g id="xtick_7">
     <g id="line2d_13">
      <path d="M 324.958409 241.8315 
L 324.958409 20.0715 
" clip-path="url(#p4949fa2ee6)" style="fill: none; stroke: #b0b0b0; stroke-opacity: 0.18; stroke-width: 0.8; stroke-linecap: square"/>
     </g>
     <g id="line2d_14">
      <g>
       <use xlink:href="#m8d96431532" x="324.958409" y="241.8315" style="stroke: #000000; stroke-width: 0.8"/>
      </g>
     </g>
     <g id="text_7">
      <text style="font-size: 8px; font-family: 'Arial', 'DejaVu Sans', 'Microsoft YaHei', 'SimHei', sans-serif; text-anchor: middle" x="324.958409" y="254.55775" transform="rotate(-0 324.958409 254.55775)">60</text>
     </g>
    </g>
    <g id="xtick_8">
     <g id="line2d_15">
      <path d="M 369.978864 241.8315 
L 369.978864 20.0715 
" clip-path="url(#p4949fa2ee6)" style="fill: none; stroke: #b0b0b0; stroke-opacity: 0.18; stroke-width: 0.8; stroke-linecap: square"/>
     </g>
     <g id="line2d_16">
      <g>
       <use xlink:href="#m8d96431532" x="369.978864" y="241.8315" style="stroke: #000000; stroke-width: 0.8"/>
      </g>
     </g>
     <g id="text_8">
      <text style="font-size: 8px; font-family: 'Arial', 'DejaVu Sans', 'Microsoft YaHei', 'SimHei', sans-serif; text-anchor: middle" x="369.978864" y="254.55775" transform="rotate(-0 369.978864 254.55775)">70</text>
     </g>
    </g>
    <g id="xtick_9">
     <g id="line2d_17">
      <path d="M 414.999318 241.8315 
L 414.999318 20.0715 
" clip-path="url(#p4949fa2ee6)" style="fill: none; stroke: #b0b0b0; stroke-opacity: 0.18; stroke-width: 0.8; stroke-linecap: square"/>
     </g>
     <g id="line2d_18">
      <g>
       <use xlink:href="#m8d96431532" x="414.999318" y="241.8315" style="stroke: #000000; stroke-width: 0.8"/>
      </g>
     </g>
     <g id="text_9">
      <text style="font-size: 8px; font-family: 'Arial', 'DejaVu Sans', 'Microsoft YaHei', 'SimHei', sans-serif; text-anchor: middle" x="414.999318" y="254.55775" transform="rotate(-0 414.999318 254.55775)">80</text>
     </g>
    </g>
    <g id="text_10">
     <text style="font-size: 8px; font-family: 'Arial', 'DejaVu Sans', 'Microsoft YaHei', 'SimHei', sans-serif; text-anchor: middle" x="234.9175" y="265.9715" transform="rotate(-0 234.9175 265.9715)">Accelerating voltage Va (V)</text>
    </g>
   </g>
   <g id="matplotlib.axis_2">
    <g id="ytick_1">
     <g id="line2d_19">
      <path d="M 36.8275 231.7515 
L 433.0075 231.7515 
" clip-path="url(#p4949fa2ee6)" style="fill: none; stroke: #b0b0b0; stroke-opacity: 0.18; stroke-width: 0.8; stroke-linecap: square"/>
     </g>
     <g id="line2d_20">
      <defs>
       <path id="m785a031060" d="M 0 0 
L -3.5 0 
" style="stroke: #000000; stroke-width: 0.8"/>
      </defs>
      <g>
       <use xlink:href="#m785a031060" x="36.8275" y="231.7515" style="stroke: #000000; stroke-width: 0.8"/>
      </g>
     </g>
     <g id="text_11">
      <text style="font-size: 8px; font-family: 'Arial', 'DejaVu Sans', 'Microsoft YaHei', 'SimHei', sans-serif; text-anchor: end" x="29.8275" y="234.614625" transform="rotate(-0 29.8275 234.614625)">0.0</text>
     </g>
    </g>
    <g id="ytick_2">
     <g id="line2d_21">
      <path d="M 36.8275 196.32092 
L 433.0075 196.32092 
" clip-path="url(#p4949fa2ee6)" style="fill: none; stroke: #b0b0b0; stroke-opacity: 0.18; stroke-width: 0.8; stroke-linecap: square"/>
     </g>
     <g id="line2d_22">
      <g>
       <use xlink:href="#m785a031060" x="36.8275" y="196.32092" style="stroke: #000000; stroke-width: 0.8"/>
      </g>
     </g>
     <g id="text_12">
      <text style="font-size: 8px; font-family: 'Arial', 'DejaVu Sans', 'Microsoft YaHei', 'SimHei', sans-serif; text-anchor: end" x="29.8275" y="199.184045" transform="rotate(-0 29.8275 199.184045)">0.5</text>
     </g>
    </g>
    <g id="ytick_3">
     <g id="line2d_23">
      <path d="M 36.8275 160.890341 
L 433.0075 160.890341 
" clip-path="url(#p4949fa2ee6)" style="fill: none; stroke: #b0b0b0; stroke-opacity: 0.18; stroke-width: 0.8; stroke-linecap: square"/>
     </g>
     <g id="line2d_24">
      <g>
       <use xlink:href="#m785a031060" x="36.8275" y="160.890341" style="stroke: #000000; stroke-width: 0.8"/>
      </g>
     </g>
     <g id="text_13">
      <text style="font-size: 8px; font-family: 'Arial', 'DejaVu Sans', 'Microsoft YaHei', 'SimHei', sans-serif; text-anchor: end" x="29.8275" y="163.753466" transform="rotate(-0 29.8275 163.753466)">1.0</text>
     </g>
    </g>
    <g id="ytick_4">
     <g id="line2d_25">
      <path d="M 36.8275 125.459761 
L 433.0075 125.459761 
" clip-path="url(#p4949fa2ee6)" style="fill: none; stroke: #b0b0b0; stroke-opacity: 0.18; stroke-width: 0.8; stroke-linecap: square"/>
     </g>
     <g id="line2d_26">
      <g>
       <use xlink:href="#m785a031060" x="36.8275" y="125.459761" style="stroke: #000000; stroke-width: 0.8"/>
      </g>
     </g>
     <g id="text_14">
      <text style="font-size: 8px; font-family: 'Arial', 'DejaVu Sans', 'Microsoft YaHei', 'SimHei', sans-serif; text-anchor: end" x="29.8275" y="128.322886" transform="rotate(-0 29.8275 128.322886)">1.5</text>
     </g>
    </g>
    <g id="ytick_5">
     <g id="line2d_27">
      <path d="M 36.8275 90.029182 
L 433.0075 90.029182 
" clip-path="url(#p4949fa2ee6)" style="fill: none; stroke: #b0b0b0; stroke-opacity: 0.18; stroke-width: 0.8; stroke-linecap: square"/>
     </g>
     <g id="line2d_28">
      <g>
       <use xlink:href="#m785a031060" x="36.8275" y="90.029182" style="stroke: #000000; stroke-width: 0.8"/>
      </g>
     </g>
     <g id="text_15">
      <text style="font-size: 8px; font-family: 'Arial', 'DejaVu Sans', 'Microsoft YaHei', 'SimHei', sans-serif; text-anchor: end" x="29.8275" y="92.892307" transform="rotate(-0 29.8275 92.892307)">2.0</text>
     </g>
    </g>
    <g id="ytick_6">
     <g id="line2d_29">
      <path d="M 36.8275 54.598602 
L 433.0075 54.598602 
" clip-path="url(#p4949fa2ee6)" style="fill: none; stroke: #b0b0b0; stroke-opacity: 0.18; stroke-width: 0.8; stroke-linecap: square"/>
     </g>
     <g id="line2d_30">
      <g>
       <use xlink:href="#m785a031060" x="36.8275" y="54.598602" style="stroke: #000000; stroke-width: 0.8"/>
      </g>
     </g>
     <g id="text_16">
      <text style="font-size: 8px; font-family: 'Arial', 'DejaVu Sans', 'Microsoft YaHei', 'SimHei', sans-serif; text-anchor: end" x="29.8275" y="57.461727" transform="rotate(-0 29.8275 57.461727)">2.5</text>
     </g>
    </g>
    <g id="text_17">
     <text style="font-size: 8px; font-family: 'Arial', 'DejaVu Sans', 'Microsoft YaHei', 'SimHei', sans-serif; text-anchor: middle" x="13.02375" y="130.9515" transform="rotate(-90 13.02375 130.9515)">Collector current (uA)</text>
    </g>
   </g>
   <g id="line2d_31">
    <path d="M 54.835682 231.7515 
L 72.843864 231.7515 
L 75.094886 231.538917 
L 77.345909 231.11375 
L 79.596932 230.475999 
L 81.847955 229.413082 
L 84.098977 227.924997 
L 86.35 225.870024 
L 88.601023 223.319022 
L 90.852045 220.271992 
L 95.354091 213.185877 
L 99.856136 206.099761 
L 102.107159 202.840148 
L 104.358182 199.863979 
L 106.609205 197.312977 
L 108.860227 195.116279 
L 111.11125 193.132167 
L 113.362273 191.4315 
L 115.613295 190.581169 
L 117.864318 189.234803 
L 120.115341 188.101026 
L 124.617386 186.258634 
L 129.119432 185.833469 
L 131.370455 185.904329 
L 135.8725 184.628828 
L 140.374545 183.707636 
L 147.127614 182.71558 
L 151.629659 182.077829 
L 153.880682 181.652659 
L 158.382727 180.306298 
L 160.63375 179.385102 
L 162.884773 178.251325 
L 165.135795 176.479798 
L 167.386818 174.424821 
L 169.637841 172.724154 
L 171.888864 170.881762 
L 176.390909 166.771817 
L 183.143977 161.102926 
L 187.646023 157.489007 
L 189.897045 156.071785 
L 192.148068 155.079725 
L 194.399091 153.875088 
L 196.650114 153.379062 
L 201.152159 153.024756 
L 203.403182 153.024756 
L 207.905227 152.670442 
L 210.15625 152.032696 
L 212.407273 150.757195 
L 214.658295 146.434665 
L 216.909318 144.592273 
L 219.160341 142.32472 
L 221.411364 139.702852 
L 223.662386 136.726688 
L 225.913409 134.388271 
L 228.164432 132.262429 
L 232.666477 128.50679 
L 234.9175 126.947847 
L 237.168523 125.672346 
L 239.419545 124.60943 
L 241.670568 123.971675 
L 243.921591 123.688234 
L 246.172614 124.042539 
L 248.423636 124.255124 
L 250.674659 124.75115 
L 255.176705 126.239237 
L 257.427727 126.380957 
L 259.67875 125.743202 
L 261.929773 124.042539 
L 264.180795 121.066367 
L 266.431818 117.452448 
L 270.933864 109.870304 
L 273.184886 106.398106 
L 275.435909 103.776247 
L 277.686932 101.437829 
L 279.937955 99.453717 
L 284.44 96.264968 
L 286.691023 95.060322 
L 288.942045 94.209991 
L 291.193068 93.713965 
L 293.444091 93.713965 
L 295.695114 93.997406 
L 297.946136 94.776881 
L 300.197159 95.910654 
L 302.448182 97.25702 
L 304.699205 98.461657 
L 306.950227 99.099411 
L 309.20125 98.745106 
L 311.452273 97.044435 
L 313.703295 93.997406 
L 315.954318 89.745741 
L 318.205341 84.643735 
L 322.707386 76.778142 
L 324.958409 73.731114 
L 327.209432 70.967526 
L 329.460455 68.699964 
L 331.711477 66.999301 
L 333.9625 65.652936 
L 336.213523 64.590028 
L 338.464545 63.881417 
L 340.715568 63.385391 
L 342.966591 63.243662 
L 345.217614 63.385391 
L 347.468636 63.881417 
L 349.719659 64.802613 
L 354.221705 67.707912 
L 356.472727 68.841693 
L 358.72375 69.479448 
L 360.974773 68.983422 
L 363.225795 66.999301 
L 365.476818 63.668832 
L 367.727841 59.346293 
L 372.229886 50.205208 
L 374.480909 46.024398 
L 376.731932 42.552199 
L 378.982955 39.576044 
L 381.233977 37.025041 
L 383.485 34.970064 
L 385.736023 33.411114 
L 387.987045 32.206477 
L 390.238068 31.356137 
L 392.489091 30.647526 
L 394.740114 30.1515 
L 396.991136 30.222356 
L 399.242159 30.505814 
L 401.493182 31.285281 
L 403.744205 32.419062 
L 405.995227 33.765427 
L 408.24625 34.899191 
L 410.497273 35.607819 
L 412.748295 35.536946 
L 414.999318 34.119725 
L 414.999318 34.119725 
" clip-path="url(#p4949fa2ee6)" style="fill: none; stroke: #1f77b4; stroke-width: 1.45; stroke-linecap: square"/>
   </g>
   <g id="line2d_32">
    <path d="M 54.835682 231.7515 
L 79.596932 231.680639 
L 81.847955 231.609778 
L 84.098977 231.326333 
L 86.35 230.54686 
L 88.601023 229.271359 
L 90.852045 227.428969 
L 93.103068 225.01969 
L 95.354091 222.114382 
L 99.856136 215.382572 
L 102.107159 211.768653 
L 104.358182 208.438179 
L 106.609205 205.462011 
L 108.860227 202.769285 
L 111.11125 200.64345 
L 117.864318 196.037475 
L 120.115341 194.549393 
L 122.366364 193.344752 
L 124.617386 192.281836 
L 126.868409 191.4315 
L 133.621477 189.376527 
L 138.123523 188.455332 
L 142.625568 187.817581 
L 144.876591 187.746721 
L 151.629659 188.030166 
L 158.382727 188.384471 
L 160.63375 188.101026 
L 162.884773 187.463275 
L 165.135795 187.03811 
L 167.386818 186.329499 
L 169.637841 185.195718 
L 171.888864 183.707636 
L 174.139886 181.865244 
L 178.641932 177.400989 
L 185.395 170.244016 
L 187.646023 168.047319 
L 189.897045 166.134067 
L 192.148068 164.50426 
L 194.399091 163.441343 
L 196.650114 162.732733 
L 198.901136 162.449287 
L 201.152159 162.591008 
L 203.403182 163.299619 
L 205.654205 164.57512 
L 210.15625 167.905594 
L 212.407273 168.82679 
L 214.658295 169.606265 
L 216.909318 169.818846 
L 219.160341 168.82679 
L 221.411364 166.417512 
L 223.662386 163.370483 
L 225.913409 159.685704 
L 230.415455 151.465805 
L 232.666477 147.639301 
L 234.9175 144.167111 
L 237.168523 141.120074 
L 239.419545 138.639936 
L 241.670568 136.655824 
L 243.921591 135.309466 
L 246.172614 134.671712 
L 248.423636 134.884296 
L 250.674659 135.947213 
L 252.925682 138.00219 
L 255.176705 140.978354 
L 257.427727 144.592273 
L 259.67875 148.418777 
L 261.929773 151.961831 
L 264.180795 154.229393 
L 266.431818 155.079725 
L 268.682841 153.945944 
L 270.933864 150.757195 
L 273.184886 145.655189 
L 279.937955 127.302153 
L 282.188977 122.129283 
L 284.44 117.594177 
L 286.691023 113.767673 
L 288.942045 110.93322 
L 291.193068 108.311362 
L 293.444091 106.610691 
L 295.695114 105.760359 
L 297.946136 105.831224 
L 300.197159 107.03586 
L 302.448182 109.303414 
L 304.699205 112.846477 
L 306.950227 117.523312 
L 311.452273 128.50679 
L 313.703295 133.25449 
L 315.954318 136.159798 
L 318.205341 136.372383 
L 320.456364 133.608795 
L 322.707386 128.152484 
L 324.958409 121.137231 
L 327.209432 113.555088 
L 329.460455 106.46897 
L 331.711477 99.949743 
L 333.9625 94.068271 
L 336.213523 89.03713 
L 338.464545 84.927176 
L 340.715568 81.525851 
L 342.966591 79.11656 
L 345.217614 77.345041 
L 347.468636 76.565557 
L 349.719659 76.778142 
L 351.970682 78.124508 
L 354.221705 80.746367 
L 356.472727 84.643735 
L 358.72375 89.887453 
L 365.476818 108.311362 
L 367.727841 112.137866 
L 369.978864 113.200782 
L 372.229886 111.004085 
L 374.480909 105.90208 
L 376.731932 99.170267 
L 378.982955 89.745741 
L 381.233977 82.305318 
L 383.485 75.290064 
L 385.736023 68.841693 
L 387.987045 63.031077 
L 390.238068 58.141657 
L 392.489091 54.102576 
L 394.740114 50.913818 
L 396.991136 48.575401 
L 399.242159 47.229035 
L 401.493182 46.803882 
L 403.744205 47.512493 
L 405.995227 49.425741 
L 408.24625 52.685354 
L 410.497273 57.220461 
L 412.748295 62.889365 
L 414.999318 69.125134 
L 414.999318 69.125134 
" clip-path="url(#p4949fa2ee6)" style="fill: none; stroke: #ff7f0e; stroke-width: 1.45; stroke-linecap: square"/>
   </g>
   <g id="line2d_33">
    <path d="M 54.835682 231.7515 
L 90.852045 231.7515 
L 93.103068 231.326333 
L 95.354091 230.54686 
L 97.605114 229.34222 
L 99.856136 227.570692 
L 102.107159 225.373995 
L 104.358182 222.752132 
L 111.11125 214.319654 
L 113.362273 211.697792 
L 115.613295 209.359373 
L 117.864318 207.23354 
L 120.115341 205.320288 
L 122.366364 203.690481 
L 126.868409 200.926896 
L 129.119432 199.722257 
L 131.370455 199.226229 
L 133.621477 199.155366 
L 138.123523 199.438811 
L 140.374545 199.297089 
L 142.625568 198.7302 
L 147.127614 198.7302 
L 149.378636 200.785173 
L 153.880682 200.360007 
L 156.131705 200.289145 
L 160.63375 199.934839 
L 162.884773 200.076562 
L 167.386818 199.722257 
L 169.637841 199.226229 
L 171.888864 198.375895 
L 174.139886 196.958671 
L 176.390909 195.116279 
L 178.641932 191.92753 
L 183.143977 186.54208 
L 185.395 183.211606 
L 187.646023 180.377158 
L 192.148068 175.133432 
L 194.399091 173.291044 
L 196.650114 171.873818 
L 198.901136 171.023487 
L 201.152159 170.740042 
L 203.403182 170.952627 
L 205.654205 171.944683 
L 207.905227 173.432765 
L 210.15625 175.416877 
L 212.407273 177.755295 
L 216.909318 181.723524 
L 219.160341 182.148689 
L 221.411364 182.148689 
L 223.662386 180.518883 
L 225.913409 177.96788 
L 228.164432 174.141376 
L 230.415455 169.46454 
L 234.9175 159.047949 
L 237.168523 154.441978 
L 239.419545 150.332025 
L 241.670568 146.859835 
L 243.921591 144.167111 
L 246.172614 142.253855 
L 248.423636 141.332659 
L 250.674659 141.403524 
L 252.925682 142.679025 
L 255.176705 145.017443 
L 257.427727 148.560497 
L 259.67875 153.166477 
L 266.431818 168.82679 
L 268.682841 172.228128 
L 270.933864 173.432765 
L 273.184886 171.448653 
L 275.435909 166.346652 
L 277.686932 160.040009 
L 279.937955 151.820111 
L 284.44 137.080994 
L 286.691023 130.561767 
L 288.942045 124.822015 
L 291.193068 120.074315 
L 293.444091 116.247811 
L 295.695114 113.484223 
L 297.946136 111.925281 
L 300.197159 111.641831 
L 302.448182 112.775612 
L 304.699205 115.468335 
L 306.950227 119.720009 
L 309.20125 125.530626 
L 311.452273 132.616735 
L 315.954318 148.702218 
L 318.205341 155.43403 
L 320.456364 159.543975 
L 322.707386 160.040009 
L 324.958409 156.638675 
L 327.209432 150.048584 
L 329.460455 141.332659 
L 331.711477 131.270377 
L 333.9625 121.845842 
L 336.213523 112.988197 
L 338.464545 105.193469 
L 340.715568 98.178216 
L 342.966591 92.438464 
L 345.217614 87.974205 
L 347.468636 84.85632 
L 349.719659 83.013928 
L 351.970682 82.588758 
L 354.221705 83.864268 
L 356.472727 86.698712 
L 358.72375 91.375547 
L 360.974773 97.82391 
L 363.225795 105.90208 
L 367.727841 124.75115 
L 369.978864 133.183625 
L 372.229886 138.710801 
L 374.480909 140.553192 
L 376.731932 138.14391 
L 378.982955 131.908124 
L 381.233977 123.263064 
L 383.485 113.625944 
L 387.987045 93.713965 
L 390.238068 84.572879 
L 392.489091 76.565557 
L 394.740114 69.479448 
L 396.991136 63.668832 
L 399.242159 59.275437 
L 401.493182 56.370138 
L 403.744205 54.669458 
L 405.995227 54.669458 
L 408.24625 56.299265 
L 410.497273 59.771463 
L 412.748295 65.086054 
L 414.999318 72.101307 
L 414.999318 72.101307 
" clip-path="url(#p4949fa2ee6)" style="fill: none; stroke: #2ca02c; stroke-width: 1.45; stroke-linecap: square"/>
   </g>
   <g id="line2d_34">
    <path d="M 54.835682 231.7515 
L 102.107159 231.7515 
L 106.609205 228.06672 
L 113.362273 221.264048 
L 115.613295 219.279936 
L 122.366364 214.673961 
L 124.617386 213.39846 
L 129.119432 211.130902 
L 133.621477 209.288512 
L 135.8725 208.509039 
L 138.123523 207.871288 
L 144.876591 206.383204 
L 147.127614 206.454067 
L 149.378636 206.312344 
L 151.629659 206.312344 
L 153.880682 206.595789 
L 158.382727 206.950095 
L 162.884773 207.446123 
L 165.135795 207.658706 
L 167.386818 207.516983 
L 169.637841 207.23354 
L 176.390909 203.194453 
L 178.641932 201.281201 
L 185.395 193.557337 
L 189.897045 188.313611 
L 192.148068 185.975189 
L 194.399091 183.991077 
L 196.650114 182.29041 
L 198.901136 181.085773 
L 201.152159 180.093717 
L 203.403182 179.951992 
L 205.654205 180.518883 
L 207.905227 181.794384 
L 210.15625 183.495051 
L 212.407273 185.550023 
L 216.909318 190.581169 
L 219.160341 192.777862 
L 221.411364 194.195088 
L 223.662386 194.620253 
L 225.913409 193.415612 
L 228.164432 190.793749 
L 230.415455 186.896385 
L 232.666477 181.936104 
L 239.419545 166.275787 
L 241.670568 161.882397 
L 243.921591 158.268482 
L 246.172614 155.43403 
L 248.423636 153.520782 
L 250.674659 152.599586 
L 252.925682 152.812171 
L 255.176705 154.229393 
L 257.427727 156.780396 
L 259.67875 160.6069 
L 261.929773 165.425456 
L 264.180795 170.952627 
L 266.431818 176.904964 
L 268.682841 182.502995 
L 270.933864 186.754665 
L 273.184886 189.589108 
L 275.435909 187.604996 
L 277.686932 183.707636 
L 279.937955 177.471854 
L 282.188977 170.031431 
L 286.691023 154.158529 
L 288.942045 146.718106 
L 291.193068 139.915437 
L 293.444091 134.317406 
L 295.695114 129.782291 
L 297.946136 126.451822 
L 300.197159 124.680286 
L 302.448182 124.113395 
L 304.699205 125.247176 
L 306.950227 127.869043 
L 309.20125 132.262429 
L 311.452273 138.285631 
L 313.703295 145.726054 
L 320.456364 171.873818 
L 322.707386 178.393046 
L 324.958409 181.936104 
L 327.209432 181.581799 
L 329.460455 177.188409 
L 331.711477 169.181095 
L 333.9625 157.205557 
L 338.464545 136.301518 
L 340.715568 126.806127 
L 342.966591 118.090203 
L 345.217614 110.578915 
L 347.468636 104.555722 
L 349.719659 100.091463 
L 351.970682 97.186155 
L 354.221705 96.123239 
L 356.472727 96.973579 
L 358.72375 99.595437 
L 360.974773 104.272273 
L 363.225795 110.93322 
L 365.476818 119.365704 
L 367.727841 129.215401 
L 372.229886 150.757195 
L 374.480909 160.18173 
L 376.731932 166.771817 
L 378.982955 168.968515 
L 381.233977 166.417512 
L 383.485 158.835364 
L 385.736023 149.056523 
L 390.238068 126.310093 
L 394.740114 104.201417 
L 396.991136 94.918602 
L 399.242159 86.556983 
L 401.493182 79.896044 
L 403.744205 74.864894 
L 405.995227 71.676137 
L 408.24625 70.4715 
L 410.497273 71.463552 
L 412.748295 74.439725 
L 414.999318 81.880148 
L 414.999318 81.880148 
" clip-path="url(#p4949fa2ee6)" style="fill: none; stroke: #d62728; stroke-width: 1.45; stroke-linecap: square"/>
   </g>
   <g id="line2d_35">
    <path d="M 54.835682 231.7515 
L 113.362273 231.7515 
L 115.613295 231.538917 
L 117.864318 231.184611 
L 120.115341 230.617721 
L 124.617386 229.129637 
L 129.119432 227.216386 
L 135.8725 224.169356 
L 138.123523 223.602467 
L 140.374545 222.610411 
L 149.378636 219.279936 
L 151.629659 218.571324 
L 153.880682 218.004435 
L 160.63375 217.154101 
L 162.884773 217.012379 
L 176.390909 217.012379 
L 178.641932 216.658073 
L 180.892955 215.736878 
L 187.646023 210.067986 
L 194.399091 202.911008 
L 196.650114 200.64345 
L 198.901136 198.801061 
L 201.152159 197.242116 
L 203.403182 196.108335 
L 205.654205 195.399725 
L 207.905227 195.187144 
L 210.15625 195.541449 
L 212.407273 196.462643 
L 214.658295 197.738144 
L 216.909318 199.580534 
L 219.160341 201.706369 
L 223.662386 206.454067 
L 225.913409 208.154734 
L 228.164432 208.863345 
L 230.415455 208.792484 
L 232.666477 207.162678 
L 234.9175 204.044787 
L 237.168523 199.722257 
L 239.419545 194.620253 
L 243.921591 184.061941 
L 246.172614 179.385102 
L 248.423636 175.346017 
L 250.674659 172.157264 
L 252.925682 170.102291 
L 255.176705 169.181095 
L 257.427727 169.677125 
L 259.67875 171.023487 
L 261.929773 173.57449 
L 264.180795 177.117544 
L 266.431818 181.581799 
L 268.682841 186.683804 
L 273.184886 197.809005 
L 275.435909 202.840148 
L 277.686932 206.595789 
L 279.937955 208.154734 
L 282.188977 206.808372 
L 284.44 202.34412 
L 286.691023 195.541449 
L 288.942045 187.17983 
L 293.444091 169.46454 
L 297.946136 155.43403 
L 300.197159 149.906863 
L 302.448182 145.584333 
L 304.699205 143.03333 
L 306.950227 142.395576 
L 309.20125 143.600221 
L 311.452273 146.718106 
L 313.703295 151.394949 
L 315.954318 157.559863 
L 318.205341 164.929426 
L 320.456364 173.07846 
L 324.958409 190.368584 
L 327.209432 197.879867 
L 329.460455 203.05273 
L 331.711477 204.82426 
L 333.9625 202.556702 
L 336.213523 196.391781 
L 338.464545 187.321555 
L 340.715568 176.550658 
L 345.217614 153.591638 
L 347.468636 143.245915 
L 349.719659 134.884296 
L 351.970682 127.656458 
L 354.221705 121.774978 
L 356.472727 117.806753 
L 358.72375 116.247811 
L 360.974773 117.027286 
L 363.225795 120.145171 
L 365.476818 125.318041 
L 367.727841 132.333294 
L 369.978864 140.836633 
L 372.229886 150.68633 
L 378.982955 182.29041 
L 381.233977 190.297723 
L 383.485 194.620253 
L 385.736023 194.407668 
L 387.987045 189.518248 
L 390.238068 181.014909 
L 392.489091 169.889706 
L 399.242159 132.475014 
L 401.493182 121.208096 
L 403.744205 111.854416 
L 405.995227 103.351077 
L 408.24625 97.115299 
L 410.497273 93.07621 
L 412.748295 91.729853 
L 414.999318 92.721905 
L 414.999318 92.721905 
" clip-path="url(#p4949fa2ee6)" style="fill: none; stroke: #9467bd; stroke-width: 1.45; stroke-linecap: square"/>
   </g>
   <g id="patch_3">
    <path d="M 36.8275 241.8315 
L 36.8275 20.0715 
" style="fill: none; stroke: #000000; stroke-width: 0.8; stroke-linejoin: miter; stroke-linecap: square"/>
   </g>
   <g id="patch_4">
    <path d="M 36.8275 241.8315 
L 433.0075 241.8315 
" style="fill: none; stroke: #000000; stroke-width: 0.8; stroke-linejoin: miter; stroke-linecap: square"/>
   </g>
   <g id="text_18">
    <text style="font-size: 9.6px; font-family: 'Arial', 'DejaVu Sans', 'Microsoft YaHei', 'SimHei', sans-serif; text-anchor: middle" x="234.9175" y="14.0715" transform="rotate(-0 234.9175 14.0715)">Raw argon Franck-Hertz curves</text>
   </g>
   <g id="legend_1">
    <g id="line2d_36">
     <path d="M 43.1275 28.931969 
L 50.1275 28.931969 
L 57.1275 28.931969 
" style="fill: none; stroke: #1f77b4; stroke-width: 1.45; stroke-linecap: square"/>
    </g>
    <g id="text_19">
     <text style="font-size: 7px; font-family: 'Arial', 'DejaVu Sans', 'Microsoft YaHei', 'SimHei', sans-serif; text-anchor: start" x="62.7275" y="31.381969" transform="rotate(-0 62.7275 31.381969)">Vr=0 V</text>
    </g>
    <g id="line2d_37">
     <path d="M 43.1275 38.833687 
L 50.1275 38.833687 
L 57.1275 38.833687 
" style="fill: none; stroke: #ff7f0e; stroke-width: 1.45; stroke-linecap: square"/>
    </g>
    <g id="text_20">
     <text style="font-size: 7px; font-family: 'Arial', 'DejaVu Sans', 'Microsoft YaHei', 'SimHei', sans-serif; text-anchor: start" x="62.7275" y="41.283687" transform="rotate(-0 62.7275 41.283687)">Vr=4 V</text>
    </g>
    <g id="line2d_38">
     <path d="M 98.06 28.931969 
L 105.06 28.931969 
L 112.06 28.931969 
" style="fill: none; stroke: #2ca02c; stroke-width: 1.45; stroke-linecap: square"/>
    </g>
    <g id="text_21">
     <text style="font-size: 7px; font-family: 'Arial', 'DejaVu Sans', 'Microsoft YaHei', 'SimHei', sans-serif; text-anchor: start" x="117.66" y="31.381969" transform="rotate(-0 117.66 31.381969)">Vr=6 V</text>
    </g>
    <g id="line2d_39">
     <path d="M 98.06 38.833687 
L 105.06 38.833687 
L 112.06 38.833687 
" style="fill: none; stroke: #d62728; stroke-width: 1.45; stroke-linecap: square"/>
    </g>
    <g id="text_22">
     <text style="font-size: 7px; font-family: 'Arial', 'DejaVu Sans', 'Microsoft YaHei', 'SimHei', sans-serif; text-anchor: start" x="117.66" y="41.283687" transform="rotate(-0 117.66 41.283687)">Vr=8 V</text>
    </g>
    <g id="line2d_40">
     <path d="M 152.9925 28.931969 
L 159.9925 28.931969 
L 166.9925 28.931969 
" style="fill: none; stroke: #9467bd; stroke-width: 1.45; stroke-linecap: square"/>
    </g>
    <g id="text_23">
     <text style="font-size: 7px; font-family: 'Arial', 'DejaVu Sans', 'Microsoft YaHei', 'SimHei', sans-serif; text-anchor: start" x="172.5925" y="31.381969" transform="rotate(-0 172.5925 31.381969)">Vr=10 V</text>
    </g>
   </g>
  </g>
 </g>
 <defs>
  <clipPath id="p4949fa2ee6">
   <rect x="36.8275" y="20.0715" width="396.18" height="221.76"/>
  </clipPath>
 </defs>
</svg>
